<svg width="62" height="62" viewBox="0 0 62 62" fill="none" xmlns="http://www.w3.org/2000/svg">
<circle cx="31.104" cy="31.104" r="30.896" fill="#068313"/>
<path d="M43.2094 32.6455C41.8921 32.6455 40.8794 32.3514 40.1711 31.7633C39.4695 31.1752 39.1186 30.3336 39.1186 29.2385V28.985C39.1186 28.3022 39.2543 27.7074 39.5257 27.2004C39.8037 26.6934 40.2439 26.2979 40.8463 26.014C41.4486 25.7233 42.2363 25.5645 43.2094 25.5374L48.154 25.3752V26.6731L45.2349 26.5717L45.225 26.6427C45.6817 26.7373 46.0557 26.8996 46.3469 27.1294C46.6382 27.3592 46.8533 27.6465 46.9923 27.9913C47.1379 28.336 47.2107 28.7383 47.2107 29.1979V29.421C47.2107 30.4688 46.8732 31.2699 46.198 31.8242C45.5228 32.3717 44.5266 32.6455 43.2094 32.6455ZM43.1399 38.1007H43.3682C43.964 38.1007 44.4737 38.0534 44.8973 37.9588C45.3276 37.8709 45.6585 37.729 45.8902 37.5329C46.1219 37.3369 46.2377 37.0766 46.2377 36.7521V36.7116C46.2377 36.333 46.102 36.0424 45.8306 35.8396C45.5659 35.6435 45.1091 35.5151 44.4604 35.4542L41.72 35.2007L42.1768 35.1805C41.8061 35.2345 41.4784 35.3224 41.1938 35.4441C40.9158 35.5658 40.6974 35.7246 40.5385 35.9207C40.3796 36.1235 40.3002 36.3736 40.3002 36.671V36.6913C40.3002 37.0361 40.416 37.3132 40.6477 37.5228C40.8794 37.7323 41.207 37.881 41.6307 37.9689C42.0543 38.0568 42.5574 38.1007 43.1399 38.1007ZM43.0505 39.4088C42.1768 39.4088 41.4222 39.3311 40.7867 39.1756C40.1579 39.0269 39.668 38.7801 39.3172 38.4354C38.973 38.0974 38.8009 37.6411 38.8009 37.0665V37.0259C38.8009 36.6203 38.8936 36.2823 39.0789 36.0119C39.2709 35.7415 39.5257 35.5286 39.8435 35.3731C40.1678 35.2176 40.5286 35.1129 40.9257 35.0588L40.9158 34.9979C40.373 34.9033 39.9725 34.7411 39.7144 34.5112C39.4562 34.2746 39.3272 33.9704 39.3272 33.5986V33.5885C39.3272 33.3316 39.3834 33.1119 39.4959 32.9294C39.6151 32.7469 39.7905 32.6016 40.0222 32.4934C40.2605 32.3852 40.5617 32.3176 40.9257 32.2906V32.0878L42.7725 32.5644L42.0179 32.5441C41.5678 32.5509 41.2567 32.6083 41.0846 32.7165C40.9125 32.8179 40.8264 32.9733 40.8264 33.1829V33.193C40.8264 33.4161 40.9489 33.5851 41.1938 33.7C41.4387 33.815 41.8557 33.9062 42.4448 33.9738L44.798 34.2172C45.824 34.3253 46.572 34.5788 47.042 34.9777C47.5119 35.3697 47.7469 35.9511 47.7469 36.7217V36.7724C47.7469 37.3876 47.5682 37.8912 47.2107 38.2833C46.8533 38.6753 46.3469 38.9593 45.6916 39.135C45.0363 39.3175 44.2519 39.4088 43.3385 39.4088H43.0505ZM43.1895 31.4287C43.7455 31.4287 44.2056 31.3476 44.5696 31.1854C44.9403 31.0164 45.2183 30.7662 45.4037 30.435C45.5956 30.097 45.6916 29.6846 45.6916 29.1979V28.9546C45.6916 28.4814 45.5989 28.0792 45.4136 27.7479C45.2349 27.4167 44.9635 27.1666 44.5994 26.9976C44.2354 26.8218 43.7786 26.7339 43.2292 26.7339H43.1697C42.5739 26.7339 42.0874 26.8286 41.7101 27.0179C41.3394 27.2004 41.068 27.4606 40.8959 27.7986C40.7304 28.1299 40.6477 28.5186 40.6477 28.9647V29.1979C40.6477 29.6846 40.7404 30.0936 40.9257 30.4249C41.1177 30.7561 41.4023 31.0062 41.7796 31.1752C42.1569 31.3442 42.6269 31.4287 43.1895 31.4287Z" fill="#FF9B3D"/>
<path d="M36.4044 35.6063L36.4739 33.2032L36.4143 32.9497V29.7962L36.4242 29.2182C36.4242 28.4138 36.2223 27.8189 35.8185 27.4336C35.4214 27.0483 34.7892 26.8556 33.9221 26.8556C33.2271 26.8556 32.5883 26.957 32.0058 27.1598C31.4299 27.3626 30.9169 27.5992 30.4668 27.8696L30.6158 26.4703C30.8673 26.3148 31.1652 26.1627 31.5094 26.014C31.8602 25.8585 32.2574 25.7301 32.7009 25.6287C33.151 25.5273 33.6441 25.4766 34.1803 25.4766C34.8753 25.4766 35.4644 25.5645 35.9476 25.7402C36.4374 25.9092 36.8313 26.156 37.1292 26.4804C37.4337 26.8049 37.6554 27.197 37.7944 27.6567C37.9334 28.1163 38.0029 28.6301 38.0029 29.1979V35.6063H36.4044ZM33.0682 35.8193C32.1084 35.8193 31.3704 35.5827 30.8541 35.1095C30.3444 34.6295 30.0895 33.9468 30.0895 33.0612V32.7672C30.0895 31.8546 30.3642 31.1752 30.9136 30.729C31.4697 30.2761 32.35 29.9618 33.5547 29.786L36.6228 29.3399L36.7121 30.5364L33.7533 30.9724C33.012 31.0806 32.4824 31.2665 32.1647 31.5301C31.847 31.787 31.6881 32.1689 31.6881 32.6759V32.8381C31.6881 33.3587 31.8437 33.7575 32.1548 34.0346C32.4725 34.3118 32.9458 34.4504 33.5746 34.4504C34.1306 34.4504 34.6072 34.3524 35.0044 34.1563C35.4015 33.9603 35.7226 33.6967 35.9675 33.3654C36.2124 33.0342 36.3779 32.6658 36.4639 32.2602L36.7121 33.3756H36.4044C36.3117 33.8082 36.1363 34.2104 35.8781 34.5822C35.6266 34.954 35.2725 35.2548 34.8157 35.4847C34.359 35.7077 33.7765 35.8193 33.0682 35.8193Z" fill="#FF9B3D"/>
<path d="M26.0023 29.5528L25.6349 28.2853L26.032 28.2651C26.2439 27.4268 26.6079 26.7677 27.1242 26.2878C27.6405 25.8011 28.3256 25.5577 29.1795 25.5577C29.3913 25.5577 29.58 25.5746 29.7455 25.6084C29.9176 25.6422 30.0698 25.6828 30.2022 25.7301L30.3015 27.3221C30.136 27.268 29.9507 27.224 29.7455 27.1902C29.5469 27.1564 29.3251 27.1395 29.0802 27.1395C28.3521 27.1395 27.7167 27.3457 27.1739 27.7581C26.6377 28.1704 26.2472 28.7687 26.0023 29.5528ZM24.4732 35.6063V25.7098H26.042L25.9625 28.6301L26.0817 28.7518V35.6063H24.4732Z" fill="#FF9B3D"/>
<path d="M15.0149 35.6063V34.1868H18.0929C19.2181 34.1868 20.0621 33.8758 20.6247 33.2539C21.194 32.6252 21.4786 31.7295 21.4786 30.5668V27.677C21.4786 26.5075 21.194 25.6118 20.6247 24.9899C20.0621 24.368 19.2181 24.057 18.0929 24.057H15.0049V22.6476H18.1524C19.794 22.6476 21.0351 23.0802 21.8758 23.9455C22.7164 24.804 23.1368 26.0444 23.1368 27.6668V30.577C23.1368 32.1926 22.7164 33.4364 21.8758 34.3084C21.0351 35.1737 19.794 35.6063 18.1524 35.6063H15.0149ZM13.9028 35.6063V22.6476H15.5312V35.6063H13.9028Z" fill="#FF9B3D"/>
</svg>
