<svg width="100" height="100" viewBox="0 0 100 100" fill="none" xmlns="http://www.w3.org/2000/svg">
<circle cx="50" cy="50" r="50" fill="url(#paint0_radial_37_32)"/>
<g filter="url(#filter0_d_37_32)">
<path d="M65.9014 52.1331C64.188 52.1331 62.8706 51.7586 61.9493 51.0095C61.0367 50.2604 60.5803 49.1885 60.5803 47.7936V47.4708C60.5803 46.6011 60.7568 45.8434 61.1099 45.1977C61.4715 44.5519 62.0441 44.0482 62.8276 43.6866C63.6111 43.3164 64.6357 43.114 65.9014 43.0796L72.3331 42.873V44.5261L68.5361 44.397L68.5231 44.4874C69.1172 44.6079 69.6037 44.8145 69.9826 45.1073C70.3614 45.4 70.6412 45.766 70.822 46.2051C71.0115 46.6442 71.1062 47.1565 71.1062 47.742V48.0261C71.1062 49.3607 70.6671 50.381 69.7888 51.087C68.9106 51.7844 67.6148 52.1331 65.9014 52.1331ZM65.811 59.0815H66.108C66.8829 59.0815 67.5459 59.0212 68.0969 58.9006C68.6566 58.7887 69.0871 58.6079 69.3885 58.3582C69.6898 58.1085 69.8405 57.777 69.8405 57.3637V57.3121C69.8405 56.8299 69.664 56.4597 69.311 56.2014C68.9666 55.9517 68.3725 55.7881 67.5287 55.7106L63.9641 55.3877L64.5582 55.3619C64.076 55.4308 63.6498 55.5427 63.2796 55.6977C62.918 55.8527 62.6338 56.055 62.4272 56.3047C62.2206 56.563 62.1172 56.8816 62.1172 57.2604V57.2862C62.1172 57.7254 62.2679 58.0784 62.5693 58.3453C62.8706 58.6122 63.2968 58.8016 63.8479 58.9136C64.3989 59.0255 65.0533 59.0815 65.811 59.0815ZM65.6947 60.7475C64.5582 60.7475 63.5766 60.6485 62.7501 60.4505C61.9321 60.261 61.295 59.9468 60.8386 59.5077C60.3909 59.0771 60.1671 58.496 60.1671 57.7641V57.7124C60.1671 57.1958 60.2876 56.7653 60.5287 56.4209C60.7784 56.0765 61.1099 55.8053 61.5231 55.6073C61.945 55.4093 62.4143 55.2758 62.9309 55.2069L62.918 55.1294C62.2119 55.0089 61.691 54.8022 61.3552 54.5095C61.0194 54.2081 60.8516 53.8207 60.8516 53.3471V53.3342C60.8516 53.007 60.9247 52.7272 61.0711 52.4947C61.2261 52.2623 61.4543 52.0771 61.7556 51.9394C62.0656 51.8016 62.4573 51.7155 62.9309 51.6811V51.4228L65.3331 52.0298L64.3516 52.004C63.7661 52.0126 63.3614 52.0858 63.1375 52.2235C62.9137 52.3527 62.8017 52.5507 62.8017 52.8176V52.8305C62.8017 53.1147 62.961 53.3299 63.2796 53.4763C63.5982 53.6227 64.1406 53.7389 64.9069 53.825L67.9678 54.135C69.3024 54.2727 70.2753 54.5956 70.8866 55.1036C71.4979 55.603 71.8036 56.3434 71.8036 57.325V57.3896C71.8036 58.1731 71.5711 58.8145 71.1062 59.3139C70.6412 59.8133 69.9825 60.1749 69.1302 60.3988C68.2778 60.6313 67.2575 60.7475 66.0693 60.7475H65.6947ZM65.8755 50.5833C66.5988 50.5833 67.1972 50.48 67.6707 50.2733C68.1529 50.0581 68.5145 49.7395 68.7556 49.3176C69.0053 48.8871 69.1302 48.3619 69.1302 47.742V47.432C69.1302 46.8293 69.0096 46.317 68.7685 45.8951C68.5361 45.4732 68.183 45.1546 67.7095 44.9394C67.2359 44.7155 66.6418 44.6036 65.9272 44.6036H65.8497C65.0748 44.6036 64.442 44.7241 63.9512 44.9652C63.469 45.1977 63.116 45.5292 62.8921 45.9597C62.6769 46.3816 62.5693 46.8767 62.5693 47.4449V47.742C62.5693 48.3619 62.6898 48.8828 62.9309 49.3047C63.1806 49.7266 63.5508 50.0452 64.0416 50.2604C64.5324 50.4757 65.1437 50.5833 65.8755 50.5833Z" fill="#286FD1"/>
<path d="M57.0497 55.9043L57.1401 52.8434L57.0626 52.5206V48.504L57.0755 47.7678C57.0755 46.7432 56.8129 45.9855 56.2877 45.4947C55.7711 45.004 54.9488 44.7586 53.8209 44.7586C52.9169 44.7586 52.086 44.8877 51.3283 45.146C50.5792 45.4043 49.9119 45.7057 49.3265 46.0501L49.5202 44.2678C49.8474 44.0698 50.2348 43.876 50.6825 43.6866C51.1389 43.4886 51.6555 43.325 52.2324 43.1958C52.8178 43.0667 53.4593 43.0021 54.1567 43.0021C55.0608 43.0021 55.8271 43.114 56.4556 43.3379C57.0928 43.5532 57.6051 43.8674 57.9925 44.2807C58.3886 44.694 58.677 45.1934 58.8578 45.7789C59.0386 46.3643 59.129 47.0187 59.129 47.742V55.9043H57.0497ZM52.7102 56.1755C51.4618 56.1755 50.5017 55.8742 49.8301 55.2715C49.1672 54.6602 48.8357 53.7905 48.8357 52.6626V52.2881C48.8357 51.1257 49.193 50.2604 49.9076 49.6921C50.6309 49.1153 51.776 48.7149 53.3431 48.491L57.3338 47.9228L57.4501 49.4468L53.6014 50.0021C52.637 50.1399 51.9482 50.3766 51.5349 50.7124C51.1217 51.0396 50.915 51.5261 50.915 52.1718V52.3785C50.915 53.0415 51.1174 53.5495 51.522 53.9025C51.9353 54.2555 52.5509 54.432 53.3689 54.432C54.0921 54.432 54.7121 54.3072 55.2287 54.0575C55.7453 53.8078 56.1629 53.472 56.4814 53.0501C56.8 52.6282 57.0153 52.1589 57.1272 51.6423L57.4501 53.063H57.0497C56.9292 53.614 56.701 54.1263 56.3652 54.5999C56.038 55.0734 55.5774 55.4566 54.9833 55.7493C54.3892 56.0335 53.6315 56.1755 52.7102 56.1755Z" fill="#286FD1"/>
<path d="M43.5191 48.194L43.0413 46.5796L43.5579 46.5538C43.8334 45.4861 44.307 44.6466 44.9785 44.0353C45.6501 43.4154 46.5413 43.1054 47.652 43.1054C47.9275 43.1054 48.1729 43.127 48.3881 43.17C48.612 43.2131 48.81 43.2647 48.9822 43.325L49.1114 45.3527C48.8961 45.2838 48.655 45.2278 48.3881 45.1848C48.1298 45.1417 47.8414 45.1202 47.5228 45.1202C46.5757 45.1202 45.7491 45.3828 45.0431 45.908C44.3457 46.4332 43.8377 47.1952 43.5191 48.194ZM41.5302 55.9043V43.2992H43.5708L43.4675 47.0187L43.6225 47.1737V55.9043H41.5302Z" fill="#286FD1"/>
<path d="M29.2273 55.9043V54.0962H33.2309C34.6947 54.0962 35.7924 53.7002 36.5243 52.908C37.2648 52.1073 37.635 50.9665 37.635 49.4855V45.8047C37.635 44.3152 37.2648 43.1743 36.5243 42.3822C35.7924 41.5901 34.6947 41.194 33.2309 41.194H29.2143V39.3988H33.3084C35.4437 39.3988 37.0581 39.9498 38.1516 41.0519C39.2451 42.1454 39.7918 43.7254 39.7918 45.7918V49.4984C39.7918 51.5562 39.2451 53.1405 38.1516 54.2512C37.0581 55.3533 35.4437 55.9043 33.3084 55.9043H29.2273ZM27.7808 55.9043V39.3988H29.8988V55.9043H27.7808Z" fill="#286FD1"/>
</g>
<defs>
<filter id="filter0_d_37_32" x="24.4808" y="37.0988" width="51.1522" height="27.9487" filterUnits="userSpaceOnUse" color-interpolation-filters="sRGB">
<feFlood flood-opacity="0" result="BackgroundImageFix"/>
<feColorMatrix in="SourceAlpha" type="matrix" values="0 0 0 0 0 0 0 0 0 0 0 0 0 0 0 0 0 0 127 0" result="hardAlpha"/>
<feOffset dy="1"/>
<feGaussianBlur stdDeviation="1.65"/>
<feComposite in2="hardAlpha" operator="out"/>
<feColorMatrix type="matrix" values="0 0 0 0 0 0 0 0 0 0 0 0 0 0 0 0 0 0 0.25 0"/>
<feBlend mode="normal" in2="BackgroundImageFix" result="effect1_dropShadow_37_32"/>
<feBlend mode="normal" in="SourceGraphic" in2="effect1_dropShadow_37_32" result="shape"/>
</filter>
<radialGradient id="paint0_radial_37_32" cx="0" cy="0" r="1" gradientUnits="userSpaceOnUse" gradientTransform="translate(50 50) rotate(90) scale(50)">
<stop stop-color="#CFDCFF"/>
<stop offset="0.283654" stop-color="#ECF1FF"/>
<stop offset="1" stop-color="white"/>
</radialGradient>
</defs>
</svg>
